# xmcd
#
# Track frame offsets:
#	150
#	15175
#	27810
#	42937
#	57667
#	70567
#	85492
#	99365
#	114840
#	126140
#	140932
#	154512
#	169875
#	185455
#	198830
#	213425
#	229290
#	245707
#	261110
#	276740
#
# Disc length: 3892 seconds
#
# Revision: 2
# Processed by: cddbd v1.5.1PL0 Copyright (c) Steve Scherf et al.
# Submitted via: audiograbber 1.83.01
#
DISCID=1e0f3214
DTITLE=Music Mastero Country Club Pack 1 [CD5 of 5) (Various) - MMCOU105
DYEAR=1900
DGENRE=Karaoke
TTITLE0=Confederate Railroad, The - Trashy Women
TTITLE1=Trisha Yearwood - XXXs and OOOs (An American Girl)
TTITLE2=Faith Hill - Let's Go To Vegas
TTITLE3=Brooks and Dunn - My Maria
TTITLE4=Reba McEntire and Vince Gill - Oklahoma Swing
TTITLE5=Tim McGraw - I Like It, I Love It
TTITLE6=Jo Dee Messina - Heads Carolina, Tails California
TTITLE7=Reba McEntire - Take It Back
TTITLE8=Ray Stevens - Spanish Fireball
TTITLE9=Alan Jackson - Mercury Blues
TTITLE10=Joe Diffie - Next Thing Smokin'
TTITLE11=Deana Carter - We Danced Anyway
TTITLE12=Kenny Chesney - When I Close My Eyes
TTITLE13=Trisha Yearwood - Thinkin' About You
TTITLE14=Alabama - Take A Little Trip
TTITLE15=Garth Brooks - What She's Doing Now
TTITLE16=Alan Jackson - Someday
TTITLE17=Reba McEntire and Vince Gill - Heart Won't Lie, The
TTITLE18=Garth Brooks - Thunder Rolls, The
TTITLE19=Mary Chapin Carpenter - Passionate Kisses
EXTD=
EXTT0=
EXTT1=
EXTT2=
EXTT3=
EXTT4=
EXTT5=
EXTT6=
EXTT7=
EXTT8=
EXTT9=
EXTT10=
EXTT11=
EXTT12=
EXTT13=
EXTT14=
EXTT15=
EXTT16=
EXTT17=
EXTT18=
EXTT19=
PLAYORDER=
